<?xml version="1.0" encoding="utf-8"?>
<svg xmlns="http://www.w3.org/2000/svg" fill="none" height="130" viewBox="0 0 290 130" width="290">
<path d="M125.75 60.18C125.75 72.95 115.76 82.36 103.5 82.36C91.24 82.36 81.25 72.95 81.25 60.18C81.25 47.32 91.24 38 103.5 38C115.76 38 125.75 47.32 125.75 60.18ZM116.01 60.18C116.01 52.2 110.22 46.74 103.5 46.74C96.78 46.74 90.99 52.2 90.99 60.18C90.99 68.08 96.78 73.62 103.5 73.62C110.22 73.62 116.01 68.07 116.01 60.18Z" fill="white"/>
<path d="M173.75 60.18C173.75 72.95 163.76 82.36 151.5 82.36C139.24 82.36 129.25 72.95 129.25 60.18C129.25 47.33 139.24 38 151.5 38C163.76 38 173.75 47.32 173.75 60.18ZM164.01 60.18C164.01 52.2 158.22 46.74 151.5 46.74C144.78 46.74 138.99 52.2 138.99 60.18C138.99 68.08 144.78 73.62 151.5 73.62C158.22 73.62 164.01 68.07 164.01 60.18Z" fill="white"/>
<path d="M219.75 39.34V79.16C219.75 95.54 210.09 102.23 198.67 102.23C187.92 102.23 181.45 95.04 179.01 89.16L187.49 85.63C189 89.24 192.7 93.5 198.66 93.5C205.97 93.5 210.5 88.99 210.5 80.5V77.31H210.16C207.98 80 203.78 82.35 198.48 82.35C187.39 82.35 177.23 72.69 177.23 60.26C177.23 47.74 187.39 38 198.48 38C203.77 38 207.97 40.35 210.16 42.96H210.5V39.35H219.75V39.34ZM211.19 60.26C211.19 52.45 205.98 46.74 199.35 46.74C192.63 46.74 187 52.45 187 60.26C187 67.99 192.63 73.62 199.35 73.62C205.98 73.62 211.19 67.99 211.19 60.26Z" fill="white"/>
<path d="M235 16V81H225.5V16H235Z" fill="white"/>
<path d="M272.02 67.48L279.58 72.52C277.14 76.13 271.26 82.35 261.1 82.35C248.5 82.35 239.09 72.61 239.09 60.17C239.09 46.98 248.58 37.99 260.01 37.99C271.52 37.99 277.15 47.15 278.99 52.1L280 54.62L250.35 66.9C252.62 71.35 256.15 73.62 261.1 73.62C266.06 73.62 269.5 71.18 272.02 67.48ZM248.75 59.5L268.57 51.27C267.48 48.5 264.2 46.57 260.34 46.57C255.39 46.57 248.5 50.94 248.75 59.5Z" fill="white"/>
<path d="M45.2904 54.41V45H77.0004C77.3104 46.64 77.4704 48.58 77.4704 50.68C77.4704 57.74 75.5404 66.47 69.3204 72.69C63.2704 78.99 55.5403 82.35 45.3004 82.35C26.3204 82.35 10.3604 66.89 10.3604 47.91C10.3604 28.93 26.3204 13.47 45.3004 13.47C55.8004 13.47 63.2804 17.59 68.9004 22.96L62.2603 29.6C58.2303 25.82 52.7704 22.88 45.2904 22.88C31.4304 22.88 20.5904 34.05 20.5904 47.91C20.5904 61.77 31.4304 72.94 45.2904 72.94C54.2804 72.94 59.4004 69.33 62.6804 66.05C65.3404 63.39 67.0903 59.59 67.7803 54.4L45.2904 54.41Z" fill="white"/>
<path d="M13.459 108.248L12.0169 107.877L12.7282 100.813H20.0066V102.48H14.2579L13.8292 106.338C14.089 106.189 14.4171 106.049 14.8133 105.919C15.216 105.789 15.6772 105.724 16.1969 105.724C16.853 105.724 17.4408 105.838 17.9605 106.065C18.4801 106.286 18.9218 106.604 19.2856 107.02C19.6558 107.436 19.9384 107.936 20.1333 108.521C20.3281 109.105 20.4256 109.758 20.4256 110.479C20.4256 111.161 20.3314 111.788 20.143 112.36C19.9611 112.931 19.6851 113.431 19.3148 113.86C18.9446 114.282 18.4769 114.61 17.9117 114.844C17.3531 115.078 16.6938 115.195 15.9338 115.195C15.3622 115.195 14.8198 115.117 14.3066 114.961C13.8 114.799 13.3453 114.555 12.9425 114.23C12.5463 113.899 12.2215 113.49 11.9682 113.003C11.7214 112.509 11.5655 111.931 11.5005 111.268H13.2154C13.2933 111.801 13.4492 112.249 13.6831 112.613C13.9169 112.977 14.2222 113.253 14.5989 113.441C14.9822 113.623 15.4271 113.714 15.9338 113.714C16.3625 113.714 16.7425 113.639 17.0738 113.49C17.4051 113.34 17.6844 113.126 17.9117 112.847C18.1391 112.567 18.3112 112.23 18.4282 111.833C18.5516 111.437 18.6133 110.992 18.6133 110.498C18.6133 110.05 18.5516 109.635 18.4282 109.251C18.3047 108.868 18.1196 108.534 17.8728 108.248C17.6324 107.962 17.3369 107.741 16.9861 107.585C16.6353 107.423 16.2326 107.342 15.7779 107.342C15.1738 107.342 14.7159 107.423 14.4041 107.585C14.0988 107.748 13.7837 107.968 13.459 108.248ZM24.2353 112.856V114.308C24.2353 114.899 24.0859 115.523 23.7871 116.179C23.4883 116.842 23.0693 117.394 22.5302 117.835L21.5071 117.124C21.715 116.838 21.8904 116.546 22.0333 116.247C22.1762 115.955 22.2833 115.65 22.3548 115.331C22.4327 115.019 22.4717 114.688 22.4717 114.337V112.856H24.2353ZM35.2455 106.776V108.94C35.2455 110.102 35.1416 111.083 34.9337 111.882C34.7258 112.681 34.427 113.324 34.0373 113.811C33.6476 114.298 33.1766 114.652 32.6245 114.873C32.0788 115.088 31.4618 115.195 30.7732 115.195C30.2276 115.195 29.7242 115.127 29.263 114.99C28.8018 114.854 28.386 114.636 28.0158 114.337C27.652 114.032 27.3402 113.636 27.0804 113.149C26.8206 112.662 26.6225 112.07 26.4861 111.375C26.3496 110.68 26.2814 109.868 26.2814 108.94V106.776C26.2814 105.614 26.3854 104.639 26.5932 103.853C26.8076 103.067 27.1096 102.437 27.4994 101.963C27.8891 101.482 28.3568 101.138 28.9025 100.93C29.4546 100.722 30.0717 100.619 30.7537 100.619C31.3059 100.619 31.8125 100.687 32.2737 100.823C32.7414 100.953 33.1571 101.164 33.5209 101.456C33.8846 101.742 34.1932 102.126 34.4465 102.606C34.7063 103.08 34.9045 103.662 35.0409 104.35C35.1773 105.039 35.2455 105.848 35.2455 106.776ZM33.4332 109.232V106.474C33.4332 105.838 33.3942 105.279 33.3163 104.799C33.2448 104.311 33.1376 103.896 32.9947 103.551C32.8518 103.207 32.6699 102.928 32.4491 102.713C32.2347 102.499 31.9847 102.343 31.6988 102.246C31.4195 102.142 31.1045 102.09 30.7537 102.09C30.325 102.09 29.945 102.171 29.6137 102.333C29.2824 102.489 29.0031 102.739 28.7758 103.084C28.5549 103.428 28.386 103.879 28.2691 104.438C28.1522 104.997 28.0937 105.675 28.0937 106.474V109.232C28.0937 109.868 28.1295 110.43 28.2009 110.917C28.2789 111.405 28.3925 111.827 28.5419 112.184C28.6913 112.535 28.8732 112.824 29.0876 113.051C29.3019 113.279 29.5488 113.448 29.8281 113.558C30.1139 113.662 30.4289 113.714 30.7732 113.714C31.2149 113.714 31.6014 113.629 31.9327 113.461C32.264 113.292 32.54 113.029 32.7609 112.671C32.9882 112.308 33.1571 111.843 33.2676 111.278C33.378 110.706 33.4332 110.024 33.4332 109.232Z" fill="white"/>
<path d="M52.2379 97L54.8513 105.043L63.3085 105.043L56.4665 110.014L59.0799 118.057L52.2379 113.086L45.3959 118.057L48.0094 110.014L41.1674 105.043L49.6245 105.043L52.2379 97Z" fill="white"/>
<path d="M75.5182 97L78.1316 105.043L86.5888 105.043L79.7468 110.014L82.3602 118.057L75.5182 113.086L68.6762 118.057L71.2896 110.014L64.4476 105.043L72.9048 105.043L75.5182 97Z" fill="white"/>
<path d="M98.7985 97L101.412 105.043L109.869 105.043L103.027 110.014L105.64 118.057L98.7985 113.086L91.9565 118.057L94.5699 110.014L87.7279 105.043L96.1851 105.043L98.7985 97Z" fill="white"/>
<path d="M122.079 97L124.692 105.043L133.149 105.043L126.307 110.014L128.921 118.057L122.079 113.086L115.237 118.057L117.85 110.014L111.008 105.043L119.465 105.043L122.079 97Z" fill="white"/>
<path d="M145.36 97L147.973 105.043L156.431 105.043L149.589 110.014L152.202 118.057L145.36 113.086L138.518 118.057L141.131 110.014L134.289 105.043L142.747 105.043L145.36 97Z" fill="white"/>
</svg>