<?xml version="1.0" encoding="utf-8"?>
<!-- Generator: Adobe Illustrator 24.0.2, SVG Export Plug-In . SVG Version: 6.00 Build 0)  -->
<svg version="1.1" id="PE_logo" xmlns="http://www.w3.org/2000/svg" xmlns:xlink="http://www.w3.org/1999/xlink" x="0px" y="0px"
	 viewBox="0 0 1000 295.510132" style="enable-background:new 0 0 1000 295.510132;" xml:space="preserve">
<style type="text/css">
	.st0{fill:none;}
	.st1{fill:#C8B274;}
	.st2{fill:#FFFFFF;}
</style>
<g id="PE_logo_white">
	<rect id="safety_margin" x="-1" y="-0.29551" class="st0" width="1002" height="296.101135"/>
	<g id="logo_white">
		<g id="icon">
			<path class="st1" d="M181.333649,122.01181c0,33.157379-26.868942,60.037064-60.015358,60.037064
				s-60.018414-26.879684-60.018414-60.037064c0-33.135208,26.872005-60.007442,60.018414-60.007442
				S181.333649,88.876602,181.333649,122.01181z"/>
			<g>
				<polygon class="st2" points="145.317383,91.131599 111.096207,125.338036 97.315376,111.538567 83.519974,125.338036 
					111.096207,152.906906 159.098206,104.916039 				"/>
			</g>
		</g>
		<path id="company" class="st2" d="M279.023041,134.320435c-2.79776,2.449692-7.228729,3.378693-13.870605,3.378693H239.30687
			v27.711334h-18.987381V83.879707h44.832947c6.641876,0,11.072845,0.824059,13.870605,3.281349
			c3.727509,3.356224,6.978638,8.615242,6.978638,23.74823C286.001678,125.697594,282.637787,131.061569,279.023041,134.320435z
			 M257.702789,122.790916c4.307465,0,5.592438-0.239731,6.408661-0.93644c1.277283-1.176178,2.337463-3.258873,2.337463-11.16996
			c0-7.933571-1.169128-9.903801-2.337463-10.96759c-0.816223-0.68927-2.101196-1.048828-6.408661-1.048828h-18.39592v24.122818
			H257.702789z M292.407257,165.410461v-64.05294h17.811371v9.776535c6.637238-6.862259,10.019562-9.903877,15.144012-9.903877
			h6.865875v17.605156h-8.266663c-4.895844,0-8.619537,0.449539-13.743225,2.562157v44.01297H292.407257z M342.004883,161.462006
			c-4.187775-4.180115-5.813354-10.015717-5.813354-28.078018c0-18.167084,1.62558-23.868126,5.813354-28.183266
			c2.681915-2.801811,6.187744-3.843201,12.698425-3.843201h21.777435c6.525269,0,9.900665,1.041389,12.690735,3.843201
			c4.19165,4.31514,5.821045,10.016182,5.821045,28.183266c0,18.181976-1.629395,23.897903-5.821045,28.078018
			c-2.79007,2.922028-6.165466,3.948456-12.690735,3.948456h-21.777435
			C348.192627,165.410461,344.810303,164.384033,342.004883,161.462006z M355.399872,150.149826
			c0.696533,0.936676,1.633209,1.169113,4.663391,1.169113h11.057526c3.026337,0,3.959167-0.352112,4.659576-1.169113
			c0.932831-0.921326,1.51355-3.026352,1.51355-16.765839c0-13.739555-0.580719-15.837212-1.51355-16.885963
			c-0.700409-0.809097-1.63324-1.048828-4.659576-1.048828h-11.057526c-3.030182,0-3.966858,0.239731-4.663391,1.048828
			c-0.929016,1.048752-1.517395,3.146408-1.517395,16.885963C353.882477,147.123474,354.470856,149.2285,355.399872,150.149826z
			 M441.09201,161.462006c-1.161438,3.371567-2.54306,4.187805-6.049622,4.187805h-11.648956
			c-3.375397,0-4.895874-0.816238-6.049652-4.187805l-20.264648-60.104485h18.983551l13.046661,45.541176h1.265778
			l12.825745-45.541176h18.167328L441.09201,161.462006z M480.805115,137.474365
			c0.112,10.120895,0.812378,12.810471,1.508942,13.612137c0.824677,0.944336,2.682678,1.17601,5.709045,1.17601h10.828888
			c3.614746,0,4.551422-0.359009,5.247955-1.17601c0.576904-0.696564,0.816254-2.434891,0.929016-6.974808h16.421295
			c-0.119629,9.551605-1.161438,14.443634-4.299805,17.590424c-1.985352,1.963104-4.555237,3.708344-11.424927,3.708344h-23.75589
			c-6.528351,0-9.903748-1.026428-12.697662-3.948456c-4.19162-4.180115-5.817169-9.199493-5.817169-28.078018
			c0-18.863792,1.625549-23.868126,5.817169-28.183266c2.684998-2.801811,6.169312-3.843201,12.697662-3.843201h21.665436
			c6.518372,0,10.020325,1.041389,12.690735,3.843201c4.195435,4.210274,5.124451,9.199646,5.124451,27.613899v2.090134
			c0,1.865372-0.479431,2.569611-2.576782,2.569611H480.805115z M480.805115,127.450653h23.643127
			c0-8.615318-0.591461-10.952629-1.408478-11.88163c-0.688873-0.704155-1.745209-1.048828-5.352295-1.048828h-9.664368
			c-3.026367,0-4.884369,0.239731-5.709045,1.168732C481.497833,116.498024,480.917114,118.475777,480.805115,127.450653z
			 M530.5224,165.410461v-64.05294h17.815247v8.502937c8.262817-7.461548,10.825012-8.63028,16.765747-8.63028h7.798706
			c5.484253,0,8.975464,1.168732,11.417236,3.618423c2.681946,2.562157,3.723694,5.948296,3.723694,15.372719v45.18914h-17.807495
			v-43.084045c0-2.681984-0.471802-4.195236-1.400818-5.244064c-1.056335-1.056343-2.210083-1.393425-5.37146-1.393425h-5.004822
			c-3.026367,0-5.821045,0.689194-10.120789,2.681984v47.039551H530.5224z M677.349915,165.410461h-53.789246V83.879707h54.149048
			v7.926125h-44.964905v27.374176h38.551636v7.798706h-38.551636v30.520279h44.605103V165.410461z M681.185608,165.410461
			l22.009888-31.68187L681.54541,103.11058h10.023376l16.99054,24.340073h1.041809l16.653748-24.340073h9.559265
			l-21.665466,30.86525l22.129578,31.434631h-10.023376l-17.582764-25.021683h-0.936707l-17.125549,25.021683H681.185608z
			 M752.340576,103.11058v8.263206c8.255127-6.757393,11.177124-8.390549,17.694763-8.390549h7.221802
			c7.102112,0,10.593384,1.168655,13.267578,3.835678c3.618591,3.745773,4.892029,8.63028,4.892029,27.389137
			c0,18.878372-1.273438,23.755814-4.892029,27.494064c-2.674194,2.681915-6.165466,3.843353-13.267578,3.843353h-7.221802
			c-6.397949,0-9.559326-1.633224-17.694763-8.398605v25.741257h-8.623413V103.11058H752.340576z M752.340576,116.273254v35.869583
			c6.397888,4.06813,10.136169,5.701355,15.49231,5.701355h7.671326c5.019409,0,6.99707-0.817001,8.397827-2.195541
			c2.315247-2.337463,2.914368-5.948364,2.914368-21.440598c0-15.372719-0.599121-19.11097-2.914368-21.321014
			c-1.400757-1.513252-3.378418-2.202522-8.397827-2.202522h-7.903809
			C762.228943,110.684517,758.513672,112.302711,752.340576,116.273254z M813.950745,137.002411
			c0.112793,14.211426,1.048706,17.358215,2.802368,19.103455c1.400818,1.393127,3.018677,1.738327,7.446594,1.738327h15.49231
			c3.850281,0,5.468933-0.457214,6.756958-1.738327c1.39386-1.416138,1.978394-3.386139,2.098083-9.784058h8.37561
			c-0.224792,9.537048-1.281128,12.81041-4.307495,15.822189c-2.315186,2.345139-5.356873,3.266464-11.289917,3.266464h-17.934875
			c-6.413269,0-10.02417-0.809326-12.698425-3.483566c-3.947632-3.963028-5.35614-8.960144-5.35614-27.718842
			c0-18.63903,1.408508-23.643364,5.35614-27.613907c2.674255-2.674469,6.285156-3.483566,12.698425-3.483566h15.612
			c6.278198,0,10.129272,0.913963,12.571045,3.363739c3.955322,4.09037,5.349243,9.094704,5.349243,27.149399v1.970245
			c0,0.929001-0.359802,1.408447-1.393921,1.408447H813.950745z M813.950745,130.117676h34.476624
			c-0.120422-12.803116-1.049438-15.9496-2.906677-17.695061c-1.288757-1.288559-2.921997-1.857925-7.461914-1.857925h-13.85907
			c-4.427917,0-6.045776,0.4645-7.574707,1.97023C814.879761,114.280464,814.063538,117.082352,813.950745,130.117676z
			 M868.819397,165.410461V103.11058h8.614929v10.136093c7.566284-7.933571,10.368652-10.263435,15.597412-10.263435h7.1474
			v8.862488h-7.956726c-4.779236,0-8.030396,0.689194-14.788086,5.349014v48.215721H868.819397z M938.572754,163.560135
			l-5.475769,1.393112c-2.217834,0.457214-5.116821,0.921326-8.39093,0.921326c-4.075073,0-6.98175-0.696548-9.191833-2.899002
			c-2.105042-2.097351-2.681946-4.779251-2.681946-9.79863V110.56469h-10.346313v-7.454109h10.346313V87.490692h8.727722v15.619888
			h17.140137v7.454109h-17.140137v40.649147c0,3.251129,0.359009,4.64502,1.288025,5.468918
			c0.704224,0.816238,1.985352,1.281113,5.468933,1.281113h10.255798V163.560135z"/>
		<g id="claim">
			<path class="st2" d="M576.236145,201.659119h3.487305v31.348434h-3.487305V201.659119z"/>
			<path class="st2" d="M592.215637,213.30101v10.829056c0,4.936935,0.31842,6.341599,3.262573,6.341599
				c1.269836,0,4.030457-0.273438,4.030457-0.273438l0.228516,2.809326c0,0-3.037842,0.498199-4.622314,0.498199
				c-4.667236,0-6.251709-1.768005-6.251709-8.289413V213.30101h-3.213867v-2.944183h3.213867v-6.929703h3.352478v6.929703h7.203125
				v2.944183H592.215637z"/>
			<path class="st2" d="M605.610535,200.936188h3.580994l-2.899231,9.918823h-2.6745L605.610535,200.936188z"/>
			<path class="st2" d="M629.429993,213.664352c0,0-5.030579-0.726685-7.92981-0.726685
				c-2.805603,0-4.936951,0.771622-4.936951,3.446121c0,2.127594,1.086243,2.715683,5.888367,3.532272
				c5.663635,0.951416,7.794983,2.082642,7.794983,6.476456c0,5.300278-3.352478,7.068283-8.791382,7.068283
				c-2.899231,0-7.971008-0.861526-7.971008-0.861526l0.17981-2.944183c0,0,5.165405,0.771622,7.476562,0.771622
				c3.712097,0,5.708557-0.816574,5.708557-3.895615c0-2.356094-1.179932-2.944183-6.116821-3.715805
				c-5.120483-0.816589-7.566528-1.768005-7.566528-6.296661c0-4.981888,4.034241-6.615051,8.154602-6.615051
				c3.3974,0,8.199524,0.861526,8.199524,0.861526L629.429993,213.664352z"/>
			<path class="st2" d="M653.635193,201.659119h7.61145l8.607788,31.348434h-3.442383l-2.266174-8.064667h-13.409912
				l-2.266174,8.064667h-3.442383L653.635193,201.659119z M651.507629,221.818909h11.866638l-4.757141-17.170654h-2.35614
				L651.507629,221.818909z"/>
			<path class="st2" d="M675.353271,200.482941h3.3974v32.524612h-3.3974V200.482941z"/>
			<path class="st2" d="M686.714233,200.482941h3.3974v32.524612h-3.3974V200.482941z"/>
			<path class="st2" d="M715.096008,201.659119h7.611389l8.607849,31.348434h-3.442383l-2.266235-8.064667h-13.409851
				l-2.266235,8.064667h-3.442383L715.096008,201.659119z M712.968384,221.818909h11.866638l-4.757141-17.170654h-2.356079
				L712.968384,221.818909z"/>
			<path class="st2" d="M754.80127,221.320724c0,9.012344-2.449768,12.140076-10.694214,12.140076
				c-2.715698,0-7.562744-0.498184-7.562744-0.498184v-32.479675h3.352478v11.005112c0,0,3.442383-1.584473,6.65625-1.584473
				C752.714844,209.90358,754.80127,213.166153,754.80127,221.320724z M751.355164,221.320724
				c0-5.843414-1.176208-8.383057-5.161682-8.383057c-3.127747,0-6.296692,1.314774-6.296692,1.314774v15.945786
				c0,0,2.944214,0.228485,4.165344,0.228485C750.26886,230.426712,751.355164,227.662323,751.355164,221.320724z"/>
			<path class="st2" d="M779.650757,221.410629c0,8.244461-2.037659,12.050171-9.694031,12.050171
				c-7.61145,0-9.694092-3.80571-9.694092-12.050171c0-7.791229,2.535889-11.50705,9.694092-11.50705
				C777.159851,209.90358,779.650757,213.6194,779.650757,221.410629z M776.163452,221.410629
				c0-6.296661-1.35968-8.562866-6.206726-8.562866c-4.802124,0-6.206787,2.266205-6.206787,8.562866
				c0,6.431503,0.861511,9.105988,6.206787,9.105988C775.346863,230.516617,776.163452,227.842133,776.163452,221.410629z"/>
			<path class="st2" d="M803.590088,210.356827v22.650726h-3.397461v-1.584457c0,0-3.3974,2.037704-6.704956,2.037704
				c-6.341553,0-7.656372-2.944183-7.656372-11.278549v-11.825424h3.397461v11.776733
				c0,6.251709,0.543152,8.293152,4.757141,8.293152c3.352478,0,6.206726-1.678101,6.206726-1.678101v-18.391785H803.590088z"/>
			<path class="st2" d="M815.527893,213.30101v10.829056c0,4.936935,0.318359,6.341599,3.262573,6.341599
				c1.266052,0,4.030457-0.273438,4.030457-0.273438l0.228455,2.809326c0,0-3.037781,0.498199-4.622253,0.498199
				c-4.667236,0-6.251709-1.768005-6.251709-8.289413V213.30101h-3.213867v-2.944183h3.213867v-6.929703h3.352478v6.929703h7.203125
				v2.944183H815.527893z"/>
			<path class="st2" d="M835.979858,201.659119h22.650696v3.127731h-9.559204v28.220703h-3.442383V204.78685h-9.649109V201.659119z"
				/>
			<path class="st2" d="M859.473389,210.356827h3.352478v3.079025c0,0,3.940552-2.715683,8.289368-3.577225v3.442383
				c-4.258911,0.861526-8.244446,3.082779-8.244446,3.082779v16.623764h-3.3974V210.356827z"/>
			<path class="st2" d="M893.567505,210.356827v22.650726h-3.397461v-1.584457c0,0-3.3974,2.037704-6.704956,2.037704
				c-6.341614,0-7.656372-2.944183-7.656372-11.278549v-11.825424h3.397461v11.776733
				c0,6.251709,0.543091,8.293152,4.757141,8.293152c3.352478,0,6.206726-1.678101,6.206726-1.678101v-18.391785H893.567505z"/>
			<path class="st2" d="M916.01593,213.664352c0,0-5.030579-0.726685-7.92981-0.726685
				c-2.805603,0-4.936951,0.771622-4.936951,3.446121c0,2.127594,1.090027,2.715683,5.888367,3.532272
				c5.663635,0.951416,7.794983,2.082642,7.794983,6.476456c0,5.300278-3.352478,7.068283-8.791321,7.068283
				c-2.899231,0-7.971069-0.861526-7.971069-0.861526l0.17981-2.944183c0,0,5.165466,0.771622,7.476562,0.771622
				c3.712097,0,5.708618-0.816574,5.708618-3.895615c0-2.356094-1.179932-2.944183-6.116882-3.715805
				c-5.120483-0.816589-7.566467-1.768005-7.566467-6.296661c0-4.981888,4.03418-6.615051,8.154541-6.615051
				c3.397461,0,8.199524,0.861526,8.199524,0.861526L916.01593,213.664352z"/>
			<path class="st2" d="M927.455566,213.30101v10.829056c0,4.936935,0.318359,6.341599,3.262573,6.341599
				c1.269836,0,4.030457-0.273438,4.030457-0.273438l0.228516,2.809326c0,0-3.037842,0.498199-4.622314,0.498199
				c-4.667236,0-6.251709-1.768005-6.251709-8.289413V213.30101h-3.213867v-2.944183h3.213867v-6.929703h3.352478v6.929703h7.203125
				v2.944183H927.455566z"/>
		</g>
	</g>
</g>
</svg>
